<mxfile host="app.diagrams.net" modified="2022-03-20T10:20:00.395Z" agent="5.0 (Macintosh; Intel Mac OS X 10_15_7) AppleWebKit/605.1.15 (KHTML, like Gecko) Version/15.3 Safari/605.1.15" etag="IzQwDyWkRJyrMtajZ3dM" version="17.1.3" type="github">
  <diagram id="C5RBs43oDa-KdzZeNtuy" name="Page-1">
    <mxGraphModel dx="1773" dy="1842" grid="1" gridSize="10" guides="1" tooltips="1" connect="1" arrows="1" fold="1" page="1" pageScale="1" pageWidth="827" pageHeight="1169" math="0" shadow="0">
      <root>
        <mxCell id="WIyWlLk6GJQsqaUBKTNV-0" />
        <mxCell id="WIyWlLk6GJQsqaUBKTNV-1" parent="WIyWlLk6GJQsqaUBKTNV-0" />
        <mxCell id="YYhmIx8yX8eYOARablOY-33" style="edgeStyle=orthogonalEdgeStyle;rounded=0;orthogonalLoop=1;jettySize=auto;html=1;entryX=0;entryY=0.5;entryDx=0;entryDy=0;" edge="1" parent="WIyWlLk6GJQsqaUBKTNV-1" source="WIyWlLk6GJQsqaUBKTNV-3" target="YYhmIx8yX8eYOARablOY-14">
          <mxGeometry relative="1" as="geometry" />
        </mxCell>
        <mxCell id="YYhmIx8yX8eYOARablOY-50" style="rounded=0;orthogonalLoop=1;jettySize=auto;html=1;exitX=0;exitY=0.25;exitDx=0;exitDy=0;entryX=0.17;entryY=0.017;entryDx=0;entryDy=0;strokeColor=#00D900;entryPerimeter=0;edgeStyle=orthogonalEdgeStyle;" edge="1" parent="WIyWlLk6GJQsqaUBKTNV-1" source="WIyWlLk6GJQsqaUBKTNV-3" target="YYhmIx8yX8eYOARablOY-2">
          <mxGeometry relative="1" as="geometry" />
        </mxCell>
        <mxCell id="YYhmIx8yX8eYOARablOY-55" style="edgeStyle=orthogonalEdgeStyle;rounded=0;orthogonalLoop=1;jettySize=auto;html=1;exitX=0.5;exitY=0;exitDx=0;exitDy=0;entryX=0.542;entryY=0.833;entryDx=0;entryDy=0;entryPerimeter=0;strokeColor=#CF0050;" edge="1" parent="WIyWlLk6GJQsqaUBKTNV-1" source="WIyWlLk6GJQsqaUBKTNV-3" target="YYhmIx8yX8eYOARablOY-29">
          <mxGeometry relative="1" as="geometry" />
        </mxCell>
        <mxCell id="WIyWlLk6GJQsqaUBKTNV-3" value="Welcome Page" style="rounded=1;whiteSpace=wrap;html=1;fontSize=12;glass=0;strokeWidth=1;shadow=0;fillColor=#ffff88;strokeColor=#36393d;" parent="WIyWlLk6GJQsqaUBKTNV-1" vertex="1">
          <mxGeometry x="50" y="70" width="110" height="40" as="geometry" />
        </mxCell>
        <mxCell id="YYhmIx8yX8eYOARablOY-54" style="edgeStyle=orthogonalEdgeStyle;rounded=0;orthogonalLoop=1;jettySize=auto;html=1;exitX=1;exitY=0.25;exitDx=0;exitDy=0;entryX=0.5;entryY=1;entryDx=0;entryDy=0;strokeColor=#00D900;" edge="1" parent="WIyWlLk6GJQsqaUBKTNV-1" source="YYhmIx8yX8eYOARablOY-2" target="YYhmIx8yX8eYOARablOY-14">
          <mxGeometry relative="1" as="geometry" />
        </mxCell>
        <mxCell id="YYhmIx8yX8eYOARablOY-2" value="Registration" style="whiteSpace=wrap;html=1;rounded=1;glass=0;strokeWidth=1;shadow=0;arcSize=22;fillColor=#008a00;fontColor=#ffffff;strokeColor=#005700;" vertex="1" parent="WIyWlLk6GJQsqaUBKTNV-1">
          <mxGeometry x="-50" y="270" width="100" height="60" as="geometry" />
        </mxCell>
        <mxCell id="YYhmIx8yX8eYOARablOY-7" value="" style="edgeStyle=orthogonalEdgeStyle;rounded=0;orthogonalLoop=1;jettySize=auto;html=1;strokeColor=#FF0000;" edge="1" parent="WIyWlLk6GJQsqaUBKTNV-1" source="YYhmIx8yX8eYOARablOY-4" target="YYhmIx8yX8eYOARablOY-6">
          <mxGeometry relative="1" as="geometry" />
        </mxCell>
        <mxCell id="YYhmIx8yX8eYOARablOY-44" style="edgeStyle=orthogonalEdgeStyle;rounded=0;orthogonalLoop=1;jettySize=auto;html=1;exitX=1;exitY=0.25;exitDx=0;exitDy=0;entryX=0;entryY=0.25;entryDx=0;entryDy=0;fillColor=#d80073;strokeColor=#CF0050;" edge="1" parent="WIyWlLk6GJQsqaUBKTNV-1" source="YYhmIx8yX8eYOARablOY-4" target="YYhmIx8yX8eYOARablOY-6">
          <mxGeometry relative="1" as="geometry" />
        </mxCell>
        <mxCell id="YYhmIx8yX8eYOARablOY-4" value="Browse hotels" style="whiteSpace=wrap;html=1;rounded=1;glass=0;strokeWidth=1;shadow=0;arcSize=22;fillColor=#ffff88;strokeColor=#36393d;" vertex="1" parent="WIyWlLk6GJQsqaUBKTNV-1">
          <mxGeometry x="355" y="60" width="95" height="60" as="geometry" />
        </mxCell>
        <mxCell id="YYhmIx8yX8eYOARablOY-45" style="edgeStyle=orthogonalEdgeStyle;rounded=0;orthogonalLoop=1;jettySize=auto;html=1;exitX=1;exitY=0.25;exitDx=0;exitDy=0;fillColor=#d80073;strokeColor=#CF0050;" edge="1" parent="WIyWlLk6GJQsqaUBKTNV-1" source="YYhmIx8yX8eYOARablOY-6">
          <mxGeometry relative="1" as="geometry">
            <mxPoint x="670" y="75" as="targetPoint" />
          </mxGeometry>
        </mxCell>
        <mxCell id="YYhmIx8yX8eYOARablOY-6" value="Select one" style="whiteSpace=wrap;html=1;rounded=1;glass=0;strokeWidth=1;shadow=0;arcSize=22;fillColor=#ffff88;strokeColor=#36393d;" vertex="1" parent="WIyWlLk6GJQsqaUBKTNV-1">
          <mxGeometry x="500" y="60" width="120" height="60" as="geometry" />
        </mxCell>
        <mxCell id="YYhmIx8yX8eYOARablOY-34" style="edgeStyle=orthogonalEdgeStyle;rounded=0;orthogonalLoop=1;jettySize=auto;html=1;exitX=1;exitY=0.5;exitDx=0;exitDy=0;entryX=0;entryY=0.5;entryDx=0;entryDy=0;strokeColor=#FF0000;" edge="1" parent="WIyWlLk6GJQsqaUBKTNV-1" source="YYhmIx8yX8eYOARablOY-14" target="YYhmIx8yX8eYOARablOY-4">
          <mxGeometry relative="1" as="geometry" />
        </mxCell>
        <mxCell id="YYhmIx8yX8eYOARablOY-51" style="edgeStyle=none;rounded=0;orthogonalLoop=1;jettySize=auto;html=1;exitX=0.25;exitY=1;exitDx=0;exitDy=0;entryX=0.714;entryY=0.025;entryDx=0;entryDy=0;entryPerimeter=0;strokeColor=#000000;" edge="1" parent="WIyWlLk6GJQsqaUBKTNV-1" source="YYhmIx8yX8eYOARablOY-14" target="YYhmIx8yX8eYOARablOY-21">
          <mxGeometry relative="1" as="geometry" />
        </mxCell>
        <mxCell id="YYhmIx8yX8eYOARablOY-14" value="Login PAGE2" style="whiteSpace=wrap;html=1;rounded=1;glass=0;strokeWidth=1;shadow=0;fillColor=#ffff88;strokeColor=#36393d;" vertex="1" parent="WIyWlLk6GJQsqaUBKTNV-1">
          <mxGeometry x="190" y="60" width="120" height="60" as="geometry" />
        </mxCell>
        <mxCell id="YYhmIx8yX8eYOARablOY-21" value="Forgot Password" style="ellipse;whiteSpace=wrap;html=1;rounded=1;glass=0;strokeWidth=1;shadow=0;" vertex="1" parent="WIyWlLk6GJQsqaUBKTNV-1">
          <mxGeometry x="130" y="147.5" width="70" height="60" as="geometry" />
        </mxCell>
        <mxCell id="YYhmIx8yX8eYOARablOY-31" style="edgeStyle=orthogonalEdgeStyle;rounded=0;orthogonalLoop=1;jettySize=auto;html=1;entryX=0.432;entryY=-0.067;entryDx=0;entryDy=0;entryPerimeter=0;fillColor=#d80073;strokeColor=#CF0050;" edge="1" parent="WIyWlLk6GJQsqaUBKTNV-1" source="YYhmIx8yX8eYOARablOY-29" target="YYhmIx8yX8eYOARablOY-4">
          <mxGeometry relative="1" as="geometry">
            <mxPoint x="320" y="90" as="targetPoint" />
          </mxGeometry>
        </mxCell>
        <mxCell id="YYhmIx8yX8eYOARablOY-29" value="Continue as guest" style="whiteSpace=wrap;html=1;rounded=1;glass=0;strokeWidth=1;shadow=0;fillColor=#d80073;fontColor=#ffffff;strokeColor=#A50040;" vertex="1" parent="WIyWlLk6GJQsqaUBKTNV-1">
          <mxGeometry x="40" y="-60" width="120" height="60" as="geometry" />
        </mxCell>
        <mxCell id="YYhmIx8yX8eYOARablOY-41" value="" style="endArrow=none;html=1;rounded=0;strokeColor=#FF0000;" edge="1" parent="WIyWlLk6GJQsqaUBKTNV-1">
          <mxGeometry width="50" height="50" relative="1" as="geometry">
            <mxPoint x="510" y="155" as="sourcePoint" />
            <mxPoint x="540" y="120" as="targetPoint" />
          </mxGeometry>
        </mxCell>
        <mxCell id="YYhmIx8yX8eYOARablOY-43" value="Add your review" style="rounded=0;whiteSpace=wrap;html=1;" vertex="1" parent="WIyWlLk6GJQsqaUBKTNV-1">
          <mxGeometry x="440" y="147.5" width="100" height="40" as="geometry" />
        </mxCell>
        <mxCell id="YYhmIx8yX8eYOARablOY-46" value="END" style="text;html=1;strokeColor=none;fillColor=none;align=center;verticalAlign=middle;whiteSpace=wrap;rounded=0;" vertex="1" parent="WIyWlLk6GJQsqaUBKTNV-1">
          <mxGeometry x="670" y="60" width="60" height="30" as="geometry" />
        </mxCell>
      </root>
    </mxGraphModel>
  </diagram>
</mxfile>
